<svg width="24" height="24" fill="none" xmlns="http://www.w3.org/2000/svg"><path d="M12 20a1 1 0 0 1 .997.918L13 21v2a1 1 0 0 1-1.997.082L11 23v-2a1 1 0 0 1 1-1Zm6.775-2.635.071.065 1.429 1.414a1 1 0 0 1-1.335 1.486l-.072-.065-1.429-1.414a1 1 0 0 1 1.336-1.486Zm-12.22.067a1 1 0 0 1 .067 1.342l-.065.072-1.413 1.415a1 1 0 0 1-1.48-1.341l.065-.072 1.413-1.415a1 1 0 0 1 1.414-.001ZM12 5.76a6.24 6.24 0 1 1 0 12.48 6.24 6.24 0 0 1 0-12.48ZM3 11a1 1 0 0 1 .082 1.997L3 13H1a1 1 0 0 1-.082-1.997L1 11h2Zm20 0a1 1 0 0 1 .082 1.997L23 13h-2a1 1 0 0 1-.082-1.997L21 11h2ZM5.05 3.673l.07.065 1.415 1.414a1 1 0 0 1-1.343 1.48l-.072-.065-1.414-1.415A1 1 0 0 1 5.05 3.673Zm15.212.063a1 1 0 0 1 .066 1.343l-.064.072-1.413 1.415a1 1 0 0 1-1.48-1.342l.064-.071 1.413-1.415a1 1 0 0 1 1.414-.002ZM12 0a1 1 0 0 1 .997.918L13 1v2a1 1 0 0 1-1.997.082L11 3V1a1 1 0 0 1 1-1Z" fill="#fff"/></svg>